HIERARCHY
ROOT hips
{
  OFFSET 0 10.074487846421558 1.314567655973056
  CHANNELS 6 Xposition Yposition Zposition Yrotation Xrotation Zrotation
  JOINT spine
  {
    OFFSET -7.042773748992335e-31 0.5690686926897363 0
    CHANNELS 3 Yrotation Xrotation Zrotation
    JOINT chest
    {
      OFFSET 0 1.2435964857087873 0
      CHANNELS 3 Yrotation Xrotation Zrotation
      JOINT upperChest
      {
        OFFSET 0 1.194994586872362 0
        CHANNELS 3 Yrotation Xrotation Zrotation
        JOINT neck
        {
          OFFSET 0 1.515103653293861 0
          CHANNELS 3 Yrotation Xrotation Zrotation
          JOINT head
          {
            OFFSET 0 0.8111851616465653 0
            CHANNELS 3 Yrotation Xrotation Zrotation
            JOINT leftEye
            {
              OFFSET 0.27141371691966987 0.7490044407698551 0.18219031050045686
              CHANNELS 3 Yrotation Xrotation Zrotation
              End Site
              {
                OFFSET 0.27141371691966987 0.7490044407698551 0.18219031050045686
              }
            }
            JOINT rightEye
            {
              OFFSET -0.2714136877644943 0.7490044019380786 0.18219040411850668
              CHANNELS 3 Yrotation Xrotation Zrotation
              End Site
              {
                OFFSET -0.2714136877644943 0.7490044019380786 0.18219040411850668
              }
            }
          }
        }
        JOINT leftShoulder
        {
          OFFSET 0.4137993136083964 1.1593397335613034 0
          CHANNELS 3 Yrotation Xrotation Zrotation
          JOINT leftUpperArm
          {
            OFFSET 1.0096991868951026 0 0
            CHANNELS 3 Yrotation Xrotation Zrotation
            JOINT leftLowerArm
            {
              OFFSET 2.418380967671622 0 0
              CHANNELS 3 Yrotation Xrotation Zrotation
              JOINT leftHand
              {
                OFFSET 2.361538296260114 0 0
                CHANNELS 3 Yrotation Xrotation Zrotation
                JOINT leftIndexProximal
                {
                  OFFSET 0.7243699271447109 0.08118285989887508 0.2022042461579805
                  CHANNELS 3 Yrotation Xrotation Zrotation
                  JOINT leftIndexIntermediate
                  {
                    OFFSET 0.36553107045252053 -0.010567764853200323 -0.014102670024158437
                    CHANNELS 3 Yrotation Xrotation Zrotation
                    JOINT leftIndexDistal
                    {
                      OFFSET 0.22505120770060527 -0.007821041598631284 -0.007511611613336286
                      CHANNELS 3 Yrotation Xrotation Zrotation
                      End Site
                      {
                        OFFSET 0.22505120770060527 -0.007821041598631284 -0.007511611613336286
                      }
                    }
                  }
                }
                JOINT leftLittleProximal
                {
                  OFFSET 0.6721063881632002 0.08118279568569564 -0.3209324945517917
                  CHANNELS 3 Yrotation Xrotation Zrotation
                  JOINT leftLittleIntermediate
                  {
                    OFFSET 0.34587329423120616 5.3042709780015684e-8 -5.929537746918179e-8
                    CHANNELS 3 Yrotation Xrotation Zrotation
                    JOINT leftLittleDistal
                    {
                      OFFSET 0.1992782500022232 0.0030983716482184676 0.0038310952896712935
                      CHANNELS 3 Yrotation Xrotation Zrotation
                      End Site
                      {
                        OFFSET 0.1992782500022232 0.0030983716482184676 0.0038310952896712935
                      }
                    }
                  }
                }
                JOINT leftMiddleProximal
                {
                  OFFSET 0.7301229696860206 0.08118412848995638 0.022516891543707507
                  CHANNELS 3 Yrotation Xrotation Zrotation
                  JOINT leftMiddleIntermediate
                  {
                    OFFSET 0.4076277831942017 -0.000001240188283180288 -1.6203245635504349e-7
                    CHANNELS 3 Yrotation Xrotation Zrotation
                    JOINT leftMiddleDistal
                    {
                      OFFSET 0.2514739255593972 0.0000013850839168938478 -1.8644847207816007e-8
                      CHANNELS 3 Yrotation Xrotation Zrotation
                      End Site
                      {
                        OFFSET 0.2514739255593972 0.0000013850839168938478 -1.8644847207816007e-8
                      }
                    }
                  }
                }
                JOINT leftRingProximal
                {
                  OFFSET 0.7218060861525873 0.08118280646416753 -0.1494689818508163
                  CHANNELS 3 Yrotation Xrotation Zrotation
                  JOINT leftRingIntermediate
                  {
                    OFFSET 0.3781267508900358 0.000001373626195677602 -1.4143108284514483e-7
                    CHANNELS 3 Yrotation Xrotation Zrotation
                    JOINT leftRingDistal
                    {
                      OFFSET 0.21814333268795483 -0.0027137626495670197 -0.004991775417842292
                      CHANNELS 3 Yrotation Xrotation Zrotation
                      End Site
                      {
                        OFFSET 0.21814333268795483 -0.0027137626495670197 -0.004991775417842292
                      }
                    }
                  }
                }
                JOINT leftThumbProximal
                {
                  OFFSET 0.10743676110519984 -0.16423092885053192 -0.07708859146227388
                  CHANNELS 3 Yrotation Xrotation Zrotation
                  JOINT leftThumbIntermediate
                  {
                    OFFSET 0.40350402100066307 -0.01735099334274981 0.315629965828783
                    CHANNELS 3 Yrotation Xrotation Zrotation
                    JOINT leftThumbDistal
                    {
                      OFFSET 0.2320014489535681 -0.01842351809041043 0.21271298411519196
                      CHANNELS 3 Yrotation Xrotation Zrotation
                      End Site
                      {
                        OFFSET 0.2320014489535681 -0.01842351809041043 0.21271298411519196
                      }
                    }
                  }
                }
              }
            }
          }
        }
        JOINT rightShoulder
        {
          OFFSET -0.41379931360839656 1.1593397335613034 0
          CHANNELS 3 Yrotation Xrotation Zrotation
          JOINT rightUpperArm
          {
            OFFSET -1.0096991868951024 0 0
            CHANNELS 3 Yrotation Xrotation Zrotation
            JOINT rightLowerArm
            {
              OFFSET -2.4183809676716232 0 0
              CHANNELS 3 Yrotation Xrotation Zrotation
              JOINT rightHand
              {
                OFFSET -2.3615382962601132 0 0
                CHANNELS 3 Yrotation Xrotation Zrotation
                JOINT rightIndexProximal
                {
                  OFFSET -0.7243699271447109 0.08118285989887508 0.2022042461579805
                  CHANNELS 3 Yrotation Xrotation Zrotation
                  JOINT rightIndexIntermediate
                  {
                    OFFSET -0.36553107045252053 -0.010567764853200323 -0.014102670024158437
                    CHANNELS 3 Yrotation Xrotation Zrotation
                    JOINT rightIndexDistal
                    {
                      OFFSET -0.22505120770060527 -0.007821041598631284 -0.007511611613336286
                      CHANNELS 3 Yrotation Xrotation Zrotation
                      End Site
                      {
                        OFFSET -0.22505120770060527 -0.007821041598631284 -0.007511611613336286
                      }
                    }
                  }
                }
                JOINT rightLittleProximal
                {
                  OFFSET -0.6721063881632002 0.08118279568569564 -0.3209324945517917
                  CHANNELS 3 Yrotation Xrotation Zrotation
                  JOINT rightLittleIntermediate
                  {
                    OFFSET -0.34587329423120616 5.3042709780015684e-8 -5.929537746918179e-8
                    CHANNELS 3 Yrotation Xrotation Zrotation
                    JOINT rightLittleDistal
                    {
                      OFFSET -0.1992782500022232 0.0030983716482184676 0.0038310952896712935
                      CHANNELS 3 Yrotation Xrotation Zrotation
                      End Site
                      {
                        OFFSET -0.1992782500022232 0.0030983716482184676 0.0038310952896712935
                      }
                    }
                  }
                }
                JOINT rightMiddleProximal
                {
                  OFFSET -0.7301229696860206 0.08118412848995638 0.022516891543707507
                  CHANNELS 3 Yrotation Xrotation Zrotation
                  JOINT rightMiddleIntermediate
                  {
                    OFFSET -0.4076277831942017 -0.000001240188283180288 -1.6203245635504349e-7
                    CHANNELS 3 Yrotation Xrotation Zrotation
                    JOINT rightMiddleDistal
                    {
                      OFFSET -0.2514739255593972 0.0000013850839168938478 -1.8644847207816007e-8
                      CHANNELS 3 Yrotation Xrotation Zrotation
                      End Site
                      {
                        OFFSET -0.2514739255593972 0.0000013850839168938478 -1.8644847207816007e-8
                      }
                    }
                  }
                }
                JOINT rightRingProximal
                {
                  OFFSET -0.7218060861525873 0.08118280646416753 -0.1494689818508163
                  CHANNELS 3 Yrotation Xrotation Zrotation
                  JOINT rightRingIntermediate
                  {
                    OFFSET -0.3781267508900358 0.000001373626195677602 -1.4143108284514483e-7
                    CHANNELS 3 Yrotation Xrotation Zrotation
                    JOINT rightRingDistal
                    {
                      OFFSET -0.21814333268795483 -0.0027137626495670197 -0.004991775417842292
                      CHANNELS 3 Yrotation Xrotation Zrotation
                      End Site
                      {
                        OFFSET -0.21814333268795483 -0.0027137626495670197 -0.004991775417842292
                      }
                    }
                  }
                }
                JOINT rightThumbProximal
                {
                  OFFSET -0.10743676110519984 -0.16423092885053192 -0.07708859146227388
                  CHANNELS 3 Yrotation Xrotation Zrotation
                  JOINT rightThumbIntermediate
                  {
                    OFFSET -0.40350402100066307 -0.01735099334274981 0.315629965828783
                    CHANNELS 3 Yrotation Xrotation Zrotation
                    JOINT rightThumbDistal
                    {
                      OFFSET -0.2320014489535681 -0.01842351809041043 0.21271298411519196
                      CHANNELS 3 Yrotation Xrotation Zrotation
                      End Site
                      {
                        OFFSET -0.2320014489535681 -0.01842351809041043 0.21271298411519196
                      }
                    }
                  }
                }
              }
            }
          }
        }
      }
    }
  }
  JOINT leftUpperLeg
  {
    OFFSET 0.8487163290887698 -0.43932186100277326 0
    CHANNELS 3 Yrotation Xrotation Zrotation
    JOINT leftLowerLeg
    {
      OFFSET 0 -3.882816707004296 0
      CHANNELS 3 Yrotation Xrotation Zrotation
      JOINT leftFoot
      {
        OFFSET 0 -4.570431027442807 0.004629272230691511
        CHANNELS 3 Yrotation Xrotation Zrotation
        JOINT leftToes
        {
          OFFSET 0 -0.698875637876343 1.214565366696912
          CHANNELS 3 Yrotation Xrotation Zrotation
          End Site
          {
            OFFSET 0 -0.698875637876343 1.214565366696912
          }
        }
      }
    }
  }
  JOINT rightUpperLeg
  {
    OFFSET -0.8487163290887698 -0.43932186100277326 0
    CHANNELS 3 Yrotation Xrotation Zrotation
    JOINT rightLowerLeg
    {
      OFFSET 0 -3.882816707004296 0
      CHANNELS 3 Yrotation Xrotation Zrotation
      JOINT rightFoot
      {
        OFFSET 0 -4.570431027442807 0.004629272230691511
        CHANNELS 3 Yrotation Xrotation Zrotation
        JOINT rightToes
        {
          OFFSET 0 -0.698875637876343 1.214565366696912
          CHANNELS 3 Yrotation Xrotation Zrotation
          End Site
          {
            OFFSET 0 -0.698875637876343 1.214565366696912
          }
        }
      }
    }
  }
}
MOTION
Frames: 4
Frame Time: 0.03333333333333333
0.014076718129217625 -0.08416573338444877 0.008497679606080055 -5.277599167541422 -3.735639031107211 -3.361558419681815 1.5870388789120233 3.2947549464562886 2.813830976350756 0.7802636534053954 2.266427293160612 3.1227847416981462 0 0 0 -0.07343838790471144 5.626286051990051 0.4483393478952785 1.3865143745052397 -7.5609588577352564 -0.2785987437865701 0 0 0 0 0 0 -17.601459687704153 1.018126039175636 -12.414048982639036 -20.717834223998754 3.227168360391258 -70.88993988023987 -1.4592371734055185 0.00022463017044464217 0.018871944853736555 -1.7268600159877283 -33.222644101433225 -5.222262887649822 -1.0667847883160284 0.009519070938920696 -7.580460829107591 1.53178445920455 0.2342309443220544 -17.38970331910686 0.7174205936975028 0.05045328656803272 -8.047219911768682 5.218610054642817 0.8456845380369539 -27.112902973980646 1.5343614039507172 0.2350433701197425 -17.41987236690989 1.4573415993227279 0.21154983541296138 -16.519855094928317 2.4653782353607263 -0.10319773748277042 -15.733192125549106 1.5344705267922794 0.23509339634035487 -17.421111853326032 1.6201767026737695 0.26280704404917016 -18.42789453000225 3.374717658673458 0.08813717600600617 -21.170642581254278 1.830548609875943 0.33803191835836033 -20.92477551604837 1.5735051464879615 0.2474973433380197 -17.878935171387266 2.222710421324179 -0.6644972669233034 4.778483904147211 26.12448485646101 10.714851590620798 21.929360611179543 3.7618572380647874 -13.793008776128362 8.091968526682805 15.53418531193761 1.1642248125960901 14.831806891516774 28.796996088214797 11.30794206670928 64.73357020046332 6.693173344896646 0.005055817420984962 -0.08625854490692632 -0.4546032052744428 -20.18361494871241 6.945672292105816 1.3499950057432355 0.032357322551712565 6.807682395153046 -1.1745292814199315 0.17993737393501433 17.41917925459242 -0.5501152641097141 0.03876478161248403 8.060563359576314 -4.552653794538532 0.6765572720209789 26.47494622174783 -1.1764995865861134 0.18054706471673718 17.44941279604941 -1.117458730981269 0.16251364357363207 16.54780120610704 -2.0134116083054217 -0.16089851084569984 15.030857924413105 -1.1764766461425116 0.18052178488718745 17.44902774756932 -1.2422519663561062 0.2018768372007 18.458569047471457 -2.8169478889992323 -0.015190520984946493 20.487472736181047 -1.4035664593646344 0.25964604767208255 20.960708893206153 -1.2065171402498676 0.1901275757399524 17.909312888870826 -0.2290034830582559 -1.6672626952968819 -4.209775021974153 -30.65803875507376 11.062255781061037 -22.207810166431376 -3.8632156842898406 -15.53235929010131 -11.625223277897744 15.12779647570978 -10.397101848724507 7.361399394764296 2.133203765312964 12.126063181101335 4.594171912904963 0.4201940023273585 1.2821766356936464 -7.107171949361929 -0.0000025726485993729634 -4.928529408342926 0.0000013158866575537945 -10.345264657182 0.6531051456846404 3.53264891526674 -9.88375931422327 7.220918164264884 -4.404984537320079 -1.602776814821971 -3.643762254330748 3.328284758592296 -0.000009273018368617017 -7.282877815411172 9.79933508155573e-7
0.016578689217567444 -0.0852681808942144 0.0050820703618228436 -5.3364580303141524 -3.752863969190899 -3.3534713517554438 1.58705883167638 3.3048051572316335 2.811186699836352 0.7808597716402793 2.289989152120121 3.134629146807185 0 0 0 -0.07344398638050753 5.656610839212713 0.44830131538526835 1.3952156195660663 -7.531864685808546 -0.279156128779135 0 0 0 0 0 0 -17.610459039606642 1.0182704564468286 -12.407244128643072 -20.742020523434064 3.2225354918752074 -70.86469310999989 -1.4592411208280602 0.0002346446580889478 0.018848371030594637 -1.704576659210821 -33.21156117935098 -5.2454726261382145 -1.0729702943955644 0.008520326681900092 -7.583167245925415 1.531787857714271 0.23423099768335318 -17.389678464534335 0.7174242753092169 0.05046931150538142 -8.047198299520174 5.2109129253744655 0.841364295362933 -27.080117475579918 1.530825366973391 0.23393823092058436 -17.378407758233042 1.453785159932855 0.2104946307304702 -16.478423882111656 2.4601993190569362 -0.10443934651622155 -15.725440186576497 1.5344637142281046 0.23507613395914195 -17.421108594854168 1.6201784095564136 0.2627923696602656 -18.427882110405985 3.350733989050092 0.07986811588359516 -21.112746659260246 1.8296000840620907 0.3376597733007672 -20.913406227269203 1.5726369482866909 0.24722650780513739 -17.868606490868302 2.1820878545207494 -0.6597201911295849 4.7546975139714345 26.123877170046136 10.70838686769591 21.948868255793826 3.7618583231942315 -13.792999984882224 8.091953235376355 15.53897783245265 1.1657339560165692 14.821509476092412 28.859708173053473 11.317053832279411 64.69743908926617 6.72906168104408 0.005111874664693992 -0.08670528145546195 -0.44423070337719706 -20.23431156783295 6.944783644835458 1.3353701421142943 0.029872587410484847 6.866183941804905 -1.1766608800089762 0.1806127255723334 17.451831671290936 -0.5523193763817767 0.039063925957839266 8.093184322058386 -4.574019665890256 0.6861934293514363 26.384471053592684 -1.1793232703587533 0.18144106356643055 17.492468463186437 -1.1202645211518683 0.16333389658026565 16.590854619877174 -2.0149262201351035 -0.16042771952994705 15.027310633832895 -1.1763927100315894 0.18051965044247775 17.447780726771374 -1.2421638343972852 0.2018373899453905 18.457279581107223 -2.795813794750955 -0.021662969330188298 20.404547041058397 -1.39810048559591 0.2575626853522421 20.87511427616818 -1.200938268123298 0.1883162450508075 17.823847124438668 -0.23021739899311736 -1.6212346274187792 -4.188907132715268 -30.656804206238352 11.042683705523642 -22.25968234809356 -3.8820966331725946 -15.554155841206718 -11.646445776579233 15.127343157204981 -10.443222619015902 7.34873564892705 2.191699515828399 12.228634011622868 4.608948974859546 0.4213080504251941 1.2531553158063304 -7.094570287017375 0.000010877551843063512 -4.928529408342926 -0.0000014532754238845436 -10.344062276794526 0.553352802597082 3.5030202054494293 -9.848725634082259 7.398263328487366 -4.401553311740863 -1.5974482873341735 -3.703871490811257 3.3271306556989013 0.0000030686012475275017 -7.2828812582815745 -3.9895977154304705e-8
0.021626148372888565 -0.08772198491032768 -0.003425084287300706 -5.4480669714082826 -3.7981174170836414 -3.345970427487408 1.5872045813576467 3.3328893322984143 2.809571831451939 0.7822216429750272 2.339826172628637 3.1635022618808324 0 0 0 -0.059911033544852235 5.723504048441028 0.44939138207337226 1.4847639627221891 -7.37533878847996 -0.320106870227688 0 0 0 0 0 0 -17.643332527104373 1.0246472379400298 -12.363667162940526 -20.787596666635803 3.241735386056339 -70.87330253395699 -1.4733057437047739 0.00023387678812041476 0.01903074007392468 -1.6787924295877446 -33.2016224411044 -5.268569428303597 -1.1171127976652606 0.008212022678350306 -7.449551836935461 1.5315090307199146 0.2341452727571051 -17.38638945994709 0.7171184453474948 0.050412018602441565 -8.043840944284183 5.150909710615295 0.7932440239407741 -26.982779123517673 1.5313456055158914 0.23410346417981912 -17.384591550411734 1.454316919818143 0.21064705703614428 -16.48458534890249 2.3867765929708153 -0.12193613758424848 -15.606856621930994 1.5344652992598171 0.23507626736239698 -17.42109616774064 1.6201890775728756 0.2628202776799062 -18.427896150007367 3.2687667112610432 0.05371758806706484 -20.821384702924195 1.8260486655985988 0.3363039839816735 -20.871050607267374 1.5692918678265229 0.2461493289641723 -17.829348571105125 2.0143177771066614 -0.8253687015554086 4.774148052843947 26.138073234832085 10.725037284961193 21.893948483189146 3.7335491234326934 -13.76950831987678 8.067394756441665 15.576266486389974 1.1688222692930867 14.791013818248578 29.066339315625594 11.376826902067632 64.65700176101016 6.810488770129028 0.0052154514156288415 -0.08775399295486061 -0.4280226984432651 -20.302715074065915 6.920034443123437 1.4809524097436622 0.03660625126968538 6.493777991122726 -1.1798757585245774 0.1816100182148454 17.500866785371528 -0.5556502293569006 0.03955469250748564 8.142254056051211 -4.5700270406612455 0.6746244609279773 25.579498662701585 -1.1770665493892916 0.18073298819245287 17.457981835028917 -1.1180422296512993 0.16267607466387593 16.556790163815922 -1.9151012105283993 -0.17190259233255306 14.428236098101644 -1.1744347820867451 0.17991848409994812 17.417732984391193 -1.240239333304867 0.20117896630949988 18.427652651069387 -2.7590978747223347 -0.023726600426135315 19.727710714643134 -1.381061005351982 0.25111220181572247 20.609179534593157 -1.1835812035247135 0.18278612403946165 17.557813260083027 -0.034736886325015176 -1.5259911961767254 -4.194969154552935 -30.664163995653023 11.064696836464934 -22.199416239132315 -3.8706299283634884 -15.558143913285807 -11.676317452013842 15.127504282768735 -10.550235080134707 7.327931029785343 2.29552970018085 12.456813992879356 4.637288612485903 0.41832629534857624 1.2113623942351486 -7.071869712438774 0.000002610076366544573 -4.932022313398702 -0.000001753777883906577 -10.348939863412868 0.35249086429261295 3.4405045489508996 -9.772673148427954 7.768988701220947 -4.384238942535525 -1.5833090688282168 -3.825017427329109 3.32171458508846 -0.0000032491063341352096 -7.282874372540795 0.000001760984868679715
0.026532119140028954 -0.0902272873395269 -0.01371956616640091 -5.551916062281464 -3.8595670505706585 -3.337368289258154 1.5873918693106663 3.3650174866254825 2.8130052746131113 0.7836066982101042 2.3811497313101526 3.198999131604063 0 0 0 -0.02601447365481169 5.806801610616827 0.4342162076400236 1.7075105038721992 -6.964773561739519 -0.46601723337090417 0 0 0 0 0 0 -17.66492305634991 1.037321638599349 -12.272982539242381 -20.823367885968146 3.287807857461314 -70.9619478907845 -1.5037052898127798 0.0002586103771988206 0.01942396785071656 -1.6898867249907499 -33.26273396131218 -5.261808249726114 -1.212759787472014 0.0030324326545378014 -7.1512425227793095 1.529959730354341 0.23367486623836217 -17.368260414760663 0.7154875549265828 0.050181846474810166 -8.025421746311851 5.041105549944173 0.7041839778429733 -26.907651845566768 1.545011856878201 0.23840379851251503 -17.54463527121262 1.46804958864156 0.2147469063360808 -16.644632062872223 2.302396874860909 -0.13852108040631497 -15.351607714412594 1.5344631808064544 0.23506978396420347 -17.421101055448755 1.620182250042353 0.2628077911089694 -18.42788859042681 3.1471795585520335 0.017465644416809357 -20.333014765686304 1.8197924809136077 0.33392340889403144 -20.796212900825683 1.5632915199796031 0.24421919588173072 -17.75900012578354 1.6798199483337874 -1.0896038979698497 4.7730233018832635 26.172130518119314 10.765350699016107 21.76140319699642 3.659353580544287 -13.704347400738687 7.991625541252798 15.670648946688532 1.1748287558721207 14.752347388241606 29.419831364327777 11.54481654224905 64.63489770682393 6.930471516026969 0.005405794581287725 -0.08930150252969205 -0.4263466819415246 -20.262136046408923 6.902655662630306 1.8771470336435923 0.05782294391550417 5.4888923219641725 -1.1808662098334588 0.18193581454173618 17.516151168398363 -0.5566919905521053 0.03971405473277272 8.157574387391454 -4.459720025353807 0.6046334947035598 24.012068889707137 -1.1696110246833822 0.17838994165630656 17.343882015474165 -1.1105297713061668 0.16045386645037546 16.442446242454174 -1.673815638775394 -0.1953001125948591 13.078443262886271 -1.1704031938602393 0.17864482100728277 17.356066606491378 -1.2363056138534656 0.19987995509093556 18.36705910000096 -2.679017872918429 -0.030457158969973572 18.455306381324743 -1.3620595857776585 0.24401786355635094 20.31294833718681 -1.1642085686938508 0.1767178179412174 17.26150662445964 0.28917893122146543 -1.4154389911086884 -4.333366346943943 -30.70049308990436 11.162763053001502 -21.930232475973703 -3.798922719512774 -15.524455109491273 -11.717917314770427 15.138366550776032 -10.671185239287375 7.312347466451441 2.371629401973504 12.713715376151496 4.658875181374686 0.4131160385709594 1.1948779404603809 -7.065288124036926 0.000004179126416425076 -4.9442660505763625 -4.990569208767394e-7 -10.339594755617746 0.1643330292744353 3.386303976797309 -9.72361002596449 8.134665936124874 -4.377844573562851 -1.5673996726372894 -3.941439786936997 3.3142302855791943 0.0000013302034474138576 -7.2828812582815745 0.0000017014467780522177
